<svg id="Layer_1" data-name="Layer 1" xmlns="http://www.w3.org/2000/svg" viewBox="0 0 192 192"><defs><style>.cls-1,.cls-2{fill:none;stroke-linecap:round;stroke-linejoin:round;stroke-width:5.00px;}.cls-1{stroke:#4D148C;}.cls-2{stroke:#4D148C;}</style></defs><circle class="cls-1" cx="96" cy="67.69" r="20.96"></circle><path class="cls-1" d="M93.57,138.2a3,3,0,0,0,4.86,0c7.56-10.46,30.26-41.87,32-44.08C144.46,75.88,142.64,49.3,125,34A43.8,43.8,0,0,0,96,23.3h0A43.8,43.8,0,0,0,67.05,34C49.36,49.3,47.54,75.88,61.61,94.12,63.31,96.33,86,127.74,93.57,138.2Z"></path><path class="cls-2" d="M121.12,133.55l11,6.78a3,3,0,0,1,.08,5.06L97.65,168.21a3,3,0,0,1-3.3,0L59.79,145.39a3,3,0,0,1,.08-5.06l11-6.78"></path></svg>