<svg xmlns="http://www.w3.org/2000/svg" viewBox="0 0 192 192"><defs><style>.cls-1,.cls-2{fill:#4D148C;}.cls-2,.cls-3{stroke:#4D148C;stroke-miterlimit:10;stroke-width:2.00px;}.cls-3{fill:none;}</style></defs><g id="Layer_10" data-name="Layer 10"><rect class="cls-1" x="23.42" y="115.51" width="55.78" height="55.78" rx="27.89"></rect><path class="cls-2" d="M125,33.61a12.75,12.75,0,0,1-6.25,11L99.31,59.46,79.82,44.66a12.88,12.88,0,0,1,.38-22.31A12.89,12.89,0,0,1,99.31,32.74a10.17,10.17,0,0,0,0,1.09c0-.36,0-.73,0-1.09a12.88,12.88,0,0,1,19.1-10.39A12.74,12.74,0,0,1,125,33.61Z"></path><polyline class="cls-3" points="156.05 107 156.05 170.09 42.56 170.09 42.56 155.28"></polyline><line class="cls-3" x1="48.97" y1="72.54" x2="148.76" y2="72.54"></line><path class="cls-3" d="M75.56,106.63H36.45a6.41,6.41,0,0,1-5.67-9.4L42,76a6.42,6.42,0,0,1,5.68-3.43H97.38L81.24,103.21A6.43,6.43,0,0,1,75.56,106.63Z"></path><path class="cls-3" d="M123.05,106.63h39.11a6.42,6.42,0,0,0,5.68-9.4L156.64,76A6.41,6.41,0,0,0,151,72.54H101.23l16.14,30.67A6.43,6.43,0,0,0,123.05,106.63Z"></path><line class="cls-3" x1="99.31" y1="170.09" x2="99.31" y2="71.62"></line><line class="cls-3" x1="132" y1="123.43" x2="148.76" y2="123.43"></line><line class="cls-3" x1="132" y1="131.5" x2="148.76" y2="131.5"></line><line class="cls-3" x1="132" y1="139.57" x2="144.76" y2="139.57"></line><line class="cls-3" x1="42.56" y1="140.23" x2="42.56" y2="106.63"></line></g></svg>