<svg id="Layer_3" data-name="Layer 3" xmlns="http://www.w3.org/2000/svg" viewBox="0 0 192 192"><defs><style>.cls-1,.cls-2{fill:none;stroke-linecap:round;stroke-linejoin:round;stroke-width:5.00px;}.cls-1{stroke:#FF6200;}.cls-2{stroke:#FFFFFF;}.cls-3{fill:#FF6200;}</style></defs><path class="cls-1" d="M84.36,83.7A12.47,12.47,0,1,1,104.2,93.76a17.4,17.4,0,0,0-7.37,14v.63"></path><line class="cls-1" x1="96.82" y1="122.34" x2="96.82" y2="122.34"></line><line class="cls-2" x1="96.82" y1="122.34" x2="96.82" y2="122.34"></line><path class="cls-2" d="M84.36,83.7A12.47,12.47,0,1,1,104.2,93.76a17.4,17.4,0,0,0-7.37,14v.63"></path><path class="cls-2" d="M153.06,49.33l.33.4a73.77,73.77,0,1,1-9.88-10.09l.42.35.2.18"></path><polygon class="cls-3" points="46.85 165.31 24.27 169.46 26.8 145.89 46.85 165.31"></polygon></svg>